<svg xmlns="http://www.w3.org/2000/svg" width="12.577" height="17.607" viewBox="0 0 12.577 17.607">
  <path id="arrow" d="M18.35,11.031H6.276L9.181,8.125a1.192,1.192,0,0,0,.365-.868A1.272,1.272,0,0,0,8.288,6a1.186,1.186,0,0,0-.868.365l-5,5A1.206,1.206,0,0,0,2,12.288a1.14,1.14,0,0,0,.406.91l5.014,5.014a1.186,1.186,0,0,0,.868.365,1.272,1.272,0,0,0,1.258-1.258,1.192,1.192,0,0,0-.365-.868L6.276,13.546H18.35a1.258,1.258,0,1,0,0-2.515Z" transform="translate(-6 19.607) rotate(-90)" fill="#49514a"/>
</svg>
