<svg xmlns="http://www.w3.org/2000/svg" width="20" height="20" viewBox="0 0 20 20">
  <g id="Livello_114" transform="translate(-6.676)">
    <path id="Path_3" data-name="Path 3" d="M26.676,16.551a.96.96,0,0,0-1-.919,2.4,2.4,0,0,1-2.491-2.3V7.816a6.127,6.127,0,0,0-5.163-5.848,1.285,1.285,0,0,0,.145-.589,1.5,1.5,0,0,0-2.989,0,1.285,1.285,0,0,0,.144.589,6.127,6.127,0,0,0-5.162,5.848v5.517a2.4,2.4,0,0,1-2.491,2.3.922.922,0,1,0,0,1.839h7.011A2.309,2.309,0,0,0,16.676,20a2.309,2.309,0,0,0,1.993-2.529H25.68a.961.961,0,0,0,1-.92" fill="#49514a"/>
  </g>
</svg>
