<svg xmlns="http://www.w3.org/2000/svg" width="21.366" height="27.634" viewBox="0 0 21.366 27.634">
  <g id="Group_1068" data-name="Group 1068" transform="translate(-613.653 -18.801)">
    <path id="Path_998" data-name="Path 998" d="M632.248,60.151H630.8a1.076,1.076,0,0,0-1.075,1.076v1.45a1.076,1.076,0,0,0,1.075,1.076h1.45a1.078,1.078,0,0,0,1.076-1.076v-1.45A1.078,1.078,0,0,0,632.248,60.151Zm.327,2.525a.337.337,0,0,1-.015.1.327.327,0,0,1-.312.229H630.8a.327.327,0,0,1-.182-.056.328.328,0,0,1-.144-.271v-1.45a.327.327,0,0,1,.327-.327h1.45a.335.335,0,0,1,.1.015.331.331,0,0,1,.059.025.325.325,0,0,1,.17.286Z" transform="translate(-14.583 -37.523)" fill="#49514a"/>
    <path id="Path_999" data-name="Path 999" d="M632.248,117.691H630.8a1.076,1.076,0,0,0-1.075,1.076v1.45a1.076,1.076,0,0,0,1.075,1.076h1.45a1.078,1.078,0,0,0,1.076-1.076v-1.45A1.078,1.078,0,0,0,632.248,117.691Zm.327,2.525a.337.337,0,0,1-.015.1.327.327,0,0,1-.312.229H630.8a.327.327,0,0,1-.182-.056.328.328,0,0,1-.144-.271v-1.45a.327.327,0,0,1,.327-.327h1.45a.328.328,0,0,1,.156.04.325.325,0,0,1,.17.286Z" transform="translate(-14.583 -89.739)" fill="#49514a"/>
    <path id="Path_1000" data-name="Path 1000" d="M632.248,175.231H630.8a1.076,1.076,0,0,0-1.075,1.076v1.45a1.076,1.076,0,0,0,1.075,1.076h1.45a1.078,1.078,0,0,0,1.076-1.076v-1.45A1.078,1.078,0,0,0,632.248,175.231Zm.327,2.525a.337.337,0,0,1-.015.1.327.327,0,0,1-.312.229H630.8a.327.327,0,0,1-.182-.056.328.328,0,0,1-.144-.271v-1.45a.327.327,0,0,1,.327-.327h1.45a.328.328,0,0,1,.156.04.325.325,0,0,1,.17.286Z" transform="translate(-14.583 -141.954)" fill="#49514a"/>
    <path id="Path_1001" data-name="Path 1001" d="M632.248,232.771H630.8a1.076,1.076,0,0,0-1.075,1.076v1.45a1.076,1.076,0,0,0,1.075,1.076h1.45a1.078,1.078,0,0,0,1.076-1.076v-1.45A1.078,1.078,0,0,0,632.248,232.771Zm.327,2.525a.337.337,0,0,1-.015.1.327.327,0,0,1-.312.229H630.8a.327.327,0,0,1-.182-.056.328.328,0,0,1-.144-.271v-1.45a.327.327,0,0,1,.327-.327h1.45a.327.327,0,0,1,.156.04.325.325,0,0,1,.17.286Z" transform="translate(-14.583 -194.169)" fill="#49514a"/>
    <path id="Path_1002" data-name="Path 1002" d="M684.394,263.469a.327.327,0,0,1-.328.328H677.9a.329.329,0,0,1-.232-.561.331.331,0,0,1,.232-.1h6.165A.328.328,0,0,1,684.394,263.469Z" transform="translate(-58.005 -221.729)" fill="#49514a"/>
    <path id="Path_1003" data-name="Path 1003" d="M684.394,205.93a.327.327,0,0,1-.328.328H677.9a.328.328,0,0,1-.328-.328.327.327,0,0,1,.328-.328h6.165A.328.328,0,0,1,684.394,205.93Z" transform="translate(-58.005 -169.514)" fill="#49514a"/>
    <path id="Path_1004" data-name="Path 1004" d="M684.394,148.39a.327.327,0,0,1-.328.328H677.9a.328.328,0,0,1-.328-.328.327.327,0,0,1,.328-.329h6.165A.328.328,0,0,1,684.394,148.39Z" transform="translate(-58.005 -117.298)" fill="#49514a"/>
    <path id="Path_1005" data-name="Path 1005" d="M684.394,90.85a.327.327,0,0,1-.328.329H677.9a.329.329,0,0,1-.232-.561.331.331,0,0,1,.232-.1h6.165A.328.328,0,0,1,684.394,90.85Z" transform="translate(-58.005 -65.083)" fill="#49514a"/>
    <path id="Path_1006" data-name="Path 1006" d="M690.637,249.26a.33.33,0,0,1-.329.329H677.591a.33.33,0,0,1-.233-.562.332.332,0,0,1,.233-.1h12.716A.329.329,0,0,1,690.637,249.26Z" transform="translate(-57.724 -208.834)" fill="#49514a"/>
    <path id="Path_1007" data-name="Path 1007" d="M690.637,191.73a.33.33,0,0,1-.329.328H677.591a.329.329,0,0,1-.233-.561.332.332,0,0,1,.233-.1h12.716A.329.329,0,0,1,690.637,191.73Z" transform="translate(-57.724 -156.628)" fill="#49514a"/>
    <path id="Path_1008" data-name="Path 1008" d="M690.637,134.189a.33.33,0,0,1-.329.329H677.591a.329.329,0,0,1-.233-.561.332.332,0,0,1,.233-.1h12.716A.329.329,0,0,1,690.637,134.189Z" transform="translate(-57.724 -104.412)" fill="#49514a"/>
    <path id="Path_1009" data-name="Path 1009" d="M690.637,76.65a.33.33,0,0,1-.329.328H677.591a.329.329,0,0,1-.233-.561.332.332,0,0,1,.233-.1h12.716A.329.329,0,0,1,690.637,76.65Z" transform="translate(-57.724 -52.197)" fill="#49514a"/>
    <path id="Path_1010" data-name="Path 1010" d="M690.947,235.06a.328.328,0,0,1-.1.232.333.333,0,0,1-.234.1H677.9a.328.328,0,0,1-.328-.329.327.327,0,0,1,.328-.328h12.717A.328.328,0,0,1,690.947,235.06Z" transform="translate(-58.005 -195.948)" fill="#49514a"/>
    <path id="Path_1011" data-name="Path 1011" d="M690.947,177.519a.328.328,0,0,1-.1.232.332.332,0,0,1-.234.1H677.9a.329.329,0,0,1-.232-.561.331.331,0,0,1,.232-.1h12.717A.328.328,0,0,1,690.947,177.519Z" transform="translate(-58.005 -143.733)" fill="#49514a"/>
    <path id="Path_1012" data-name="Path 1012" d="M690.947,119.98a.328.328,0,0,1-.1.232.332.332,0,0,1-.234.1H677.9a.329.329,0,0,1-.232-.561.331.331,0,0,1,.232-.1h12.717A.328.328,0,0,1,690.947,119.98Z" transform="translate(-58.005 -91.517)" fill="#49514a"/>
    <path id="Path_1013" data-name="Path 1013" d="M690.947,62.44a.328.328,0,0,1-.1.232.332.332,0,0,1-.234.1H677.9a.329.329,0,0,1-.232-.561.331.331,0,0,1,.232-.1h12.717A.328.328,0,0,1,690.947,62.44Z" transform="translate(-58.005 -39.302)" fill="#49514a"/>
    <path id="Path_1014" data-name="Path 1014" d="M633.352,18.8H615.321a1.668,1.668,0,0,0-1.668,1.668v24.3a1.656,1.656,0,0,0,.64,1.311l.054.041.055.039c.019.013.037.025.057.036l.06.034.059.031.046.022c.025.012.052.023.08.034l.064.024.065.021a1.6,1.6,0,0,0,.158.04c.023.006.046.009.07.013l.056.007.059.006c.025,0,.049,0,.073,0l.071,0h18.032a1.666,1.666,0,0,0,1.667-1.668v-24.3A1.667,1.667,0,0,0,633.352,18.8ZM634.6,44.768a1.253,1.253,0,0,1-1.251,1.251H615.321a1.252,1.252,0,0,1-1.251-1.251v-24.3a1.252,1.252,0,0,1,1.251-1.251h4.407v.48a.563.563,0,0,0,.562.562h8.094a.562.562,0,0,0,.562-.562v-.48h4.407a1.253,1.253,0,0,1,1.251,1.251Z" transform="translate(0 0)" fill="#49514a"/>
    <path id="Path_1015" data-name="Path 1015" d="M632.248,60.151H630.8a1.076,1.076,0,0,0-1.075,1.076v1.45a1.076,1.076,0,0,0,1.075,1.076h1.45a1.078,1.078,0,0,0,1.076-1.076v-1.45A1.078,1.078,0,0,0,632.248,60.151Zm.327,2.525a.337.337,0,0,1-.015.1.327.327,0,0,1-.312.229H630.8a.327.327,0,0,1-.182-.056.328.328,0,0,1-.144-.271v-1.45a.327.327,0,0,1,.327-.327h1.45a.335.335,0,0,1,.1.015.331.331,0,0,1,.059.025.325.325,0,0,1,.17.286Z" transform="translate(-14.583 -37.523)" fill="#49514a"/>
    <path id="Path_1016" data-name="Path 1016" d="M632.248,117.691H630.8a1.076,1.076,0,0,0-1.075,1.076v1.45a1.076,1.076,0,0,0,1.075,1.076h1.45a1.078,1.078,0,0,0,1.076-1.076v-1.45A1.078,1.078,0,0,0,632.248,117.691Zm.327,2.525a.337.337,0,0,1-.015.1.327.327,0,0,1-.312.229H630.8a.327.327,0,0,1-.182-.056.328.328,0,0,1-.144-.271v-1.45a.327.327,0,0,1,.327-.327h1.45a.328.328,0,0,1,.156.04.325.325,0,0,1,.17.286Z" transform="translate(-14.583 -89.739)" fill="#49514a"/>
    <path id="Path_1017" data-name="Path 1017" d="M632.248,175.231H630.8a1.076,1.076,0,0,0-1.075,1.076v1.45a1.076,1.076,0,0,0,1.075,1.076h1.45a1.078,1.078,0,0,0,1.076-1.076v-1.45A1.078,1.078,0,0,0,632.248,175.231Zm.327,2.525a.337.337,0,0,1-.015.1.327.327,0,0,1-.312.229H630.8a.327.327,0,0,1-.182-.056.328.328,0,0,1-.144-.271v-1.45a.327.327,0,0,1,.327-.327h1.45a.328.328,0,0,1,.156.04.325.325,0,0,1,.17.286Z" transform="translate(-14.583 -141.954)" fill="#49514a"/>
    <path id="Path_1018" data-name="Path 1018" d="M632.248,232.771H630.8a1.076,1.076,0,0,0-1.075,1.076v1.45a1.076,1.076,0,0,0,1.075,1.076h1.45a1.078,1.078,0,0,0,1.076-1.076v-1.45A1.078,1.078,0,0,0,632.248,232.771Zm.327,2.525a.337.337,0,0,1-.015.1.327.327,0,0,1-.312.229H630.8a.327.327,0,0,1-.182-.056.328.328,0,0,1-.144-.271v-1.45a.327.327,0,0,1,.327-.327h1.45a.327.327,0,0,1,.156.04.325.325,0,0,1,.17.286Z" transform="translate(-14.583 -194.169)" fill="#49514a"/>
    <path id="Path_1019" data-name="Path 1019" d="M684.394,263.469a.327.327,0,0,1-.328.328H677.9a.329.329,0,0,1-.232-.561.331.331,0,0,1,.232-.1h6.165A.328.328,0,0,1,684.394,263.469Z" transform="translate(-58.005 -221.729)" fill="#49514a"/>
    <path id="Path_1020" data-name="Path 1020" d="M684.394,205.93a.327.327,0,0,1-.328.328H677.9a.328.328,0,0,1-.328-.328.327.327,0,0,1,.328-.328h6.165A.328.328,0,0,1,684.394,205.93Z" transform="translate(-58.005 -169.514)" fill="#49514a"/>
    <path id="Path_1021" data-name="Path 1021" d="M684.394,148.39a.327.327,0,0,1-.328.328H677.9a.328.328,0,0,1-.328-.328.327.327,0,0,1,.328-.329h6.165A.328.328,0,0,1,684.394,148.39Z" transform="translate(-58.005 -117.298)" fill="#49514a"/>
    <path id="Path_1022" data-name="Path 1022" d="M684.394,90.85a.327.327,0,0,1-.328.329H677.9a.329.329,0,0,1-.232-.561.331.331,0,0,1,.232-.1h6.165A.328.328,0,0,1,684.394,90.85Z" transform="translate(-58.005 -65.083)" fill="#49514a"/>
    <path id="Path_1023" data-name="Path 1023" d="M690.637,249.26a.33.33,0,0,1-.329.329H677.591a.33.33,0,0,1-.233-.562.332.332,0,0,1,.233-.1h12.716A.329.329,0,0,1,690.637,249.26Z" transform="translate(-57.724 -208.834)" fill="#49514a"/>
    <path id="Path_1024" data-name="Path 1024" d="M690.637,191.73a.33.33,0,0,1-.329.328H677.591a.329.329,0,0,1-.233-.561.332.332,0,0,1,.233-.1h12.716A.329.329,0,0,1,690.637,191.73Z" transform="translate(-57.724 -156.628)" fill="#49514a"/>
    <path id="Path_1025" data-name="Path 1025" d="M690.637,134.189a.33.33,0,0,1-.329.329H677.591a.329.329,0,0,1-.233-.561.332.332,0,0,1,.233-.1h12.716A.329.329,0,0,1,690.637,134.189Z" transform="translate(-57.724 -104.412)" fill="#49514a"/>
    <path id="Path_1026" data-name="Path 1026" d="M690.637,76.65a.33.33,0,0,1-.329.328H677.591a.329.329,0,0,1-.233-.561.332.332,0,0,1,.233-.1h12.716A.329.329,0,0,1,690.637,76.65Z" transform="translate(-57.724 -52.197)" fill="#49514a"/>
    <path id="Path_1027" data-name="Path 1027" d="M690.947,235.06a.328.328,0,0,1-.1.232.333.333,0,0,1-.234.1H677.9a.328.328,0,0,1-.328-.329.327.327,0,0,1,.328-.328h12.717A.328.328,0,0,1,690.947,235.06Z" transform="translate(-58.005 -195.948)" fill="#49514a"/>
    <path id="Path_1028" data-name="Path 1028" d="M690.947,177.519a.328.328,0,0,1-.1.232.332.332,0,0,1-.234.1H677.9a.329.329,0,0,1-.232-.561.331.331,0,0,1,.232-.1h12.717A.328.328,0,0,1,690.947,177.519Z" transform="translate(-58.005 -143.733)" fill="#49514a"/>
    <path id="Path_1029" data-name="Path 1029" d="M690.947,119.98a.328.328,0,0,1-.1.232.332.332,0,0,1-.234.1H677.9a.329.329,0,0,1-.232-.561.331.331,0,0,1,.232-.1h12.717A.328.328,0,0,1,690.947,119.98Z" transform="translate(-58.005 -91.517)" fill="#49514a"/>
    <path id="Path_1030" data-name="Path 1030" d="M690.947,62.44a.328.328,0,0,1-.1.232.332.332,0,0,1-.234.1H677.9a.329.329,0,0,1-.232-.561.331.331,0,0,1,.232-.1h12.717A.328.328,0,0,1,690.947,62.44Z" transform="translate(-58.005 -39.302)" fill="#49514a"/>
    <path id="Path_1031" data-name="Path 1031" d="M727.259,24.924a.209.209,0,1,1-.209-.209A.209.209,0,0,1,727.259,24.924Z" transform="translate(-102.714 -5.367)" fill="#49514a" opacity="0.2"/>
    <path id="Path_1032" data-name="Path 1032" d="M704.587,24.924a.209.209,0,1,1-.209-.209A.209.209,0,0,1,704.587,24.924Z" transform="translate(-82.14 -5.367)" fill="#49514a" opacity="0.2"/>
    <path id="Path_1033" data-name="Path 1033" d="M749.931,24.924a.209.209,0,1,1-.209-.209A.209.209,0,0,1,749.931,24.924Z" transform="translate(-123.287 -5.367)" fill="#49514a" opacity="0.2"/>
    <g id="Group_1058" data-name="Group 1058" transform="translate(615.14 22.628)">
      <g id="Group_1056" data-name="Group 1056" transform="translate(0 0)" opacity="0.1">
        <path id="Path_1034" data-name="Path 1034" d="M632.248,60.151H630.8a1.076,1.076,0,0,0-1.075,1.076v1.45a1.076,1.076,0,0,0,1.075,1.076h1.45a1.078,1.078,0,0,0,1.076-1.076v-1.45A1.078,1.078,0,0,0,632.248,60.151Zm.327,2.525a.337.337,0,0,1-.015.1.327.327,0,0,1-.312.229H630.8a.327.327,0,0,1-.182-.056.328.328,0,0,1-.144-.271v-1.45a.327.327,0,0,1,.327-.327h1.45a.335.335,0,0,1,.1.015.331.331,0,0,1,.059.025.325.325,0,0,1,.17.286Z" transform="translate(-629.723 -60.151)" fill="#49514a"/>
        <path id="Path_1035" data-name="Path 1035" d="M639.909,68.571v1.45a.327.327,0,0,1-.328.327h-1.449a.327.327,0,0,1-.328-.327v-1.45a.327.327,0,0,1,.328-.327h1.449A.327.327,0,0,1,639.909,68.571Z" transform="translate(-637.057 -67.495)" fill="#49514a"/>
      </g>
      <g id="Group_1057" data-name="Group 1057" transform="translate(4.399 0.181)">
        <path id="Path_1036" data-name="Path 1036" d="M690.947,62.44a.328.328,0,0,1-.1.232.332.332,0,0,1-.234.1H677.9a.329.329,0,0,1-.232-.561.331.331,0,0,1,.232-.1h12.717A.328.328,0,0,1,690.947,62.44Z" transform="translate(-677.544 -62.111)" fill="#49514a" opacity="0.1"/>
        <path id="Path_1037" data-name="Path 1037" d="M690.637,76.65a.33.33,0,0,1-.329.328H677.591a.329.329,0,0,1-.233-.561.332.332,0,0,1,.233-.1h12.716A.329.329,0,0,1,690.637,76.65Z" transform="translate(-677.263 -75.006)" fill="#49514a" opacity="0.1"/>
        <path id="Path_1038" data-name="Path 1038" d="M684.394,90.85a.327.327,0,0,1-.328.329H677.9a.329.329,0,0,1-.232-.561.331.331,0,0,1,.232-.1h6.165A.328.328,0,0,1,684.394,90.85Z" transform="translate(-677.544 -87.892)" fill="#49514a" opacity="0.1"/>
      </g>
    </g>
    <g id="Group_1061" data-name="Group 1061" transform="translate(615.14 27.952)">
      <g id="Group_1059" data-name="Group 1059" transform="translate(0)" opacity="0.1">
        <path id="Path_1039" data-name="Path 1039" d="M632.248,117.691H630.8a1.076,1.076,0,0,0-1.075,1.076v1.45a1.076,1.076,0,0,0,1.075,1.076h1.45a1.078,1.078,0,0,0,1.076-1.076v-1.45A1.078,1.078,0,0,0,632.248,117.691Zm.327,2.525a.337.337,0,0,1-.015.1.327.327,0,0,1-.312.229H630.8a.327.327,0,0,1-.182-.056.328.328,0,0,1-.144-.271v-1.45a.327.327,0,0,1,.327-.327h1.45a.328.328,0,0,1,.156.04.325.325,0,0,1,.17.286Z" transform="translate(-629.723 -117.691)" fill="#49514a"/>
        <path id="Path_1040" data-name="Path 1040" d="M639.909,126.111v1.45a.327.327,0,0,1-.328.327h-1.449a.327.327,0,0,1-.328-.327v-1.45a.327.327,0,0,1,.328-.327h1.449A.327.327,0,0,1,639.909,126.111Z" transform="translate(-637.057 -125.035)" fill="#49514a"/>
      </g>
      <g id="Group_1060" data-name="Group 1060" transform="translate(4.399 0.181)">
        <path id="Path_1041" data-name="Path 1041" d="M690.947,119.98a.328.328,0,0,1-.1.232.332.332,0,0,1-.234.1H677.9a.329.329,0,0,1-.232-.561.331.331,0,0,1,.232-.1h12.717A.328.328,0,0,1,690.947,119.98Z" transform="translate(-677.544 -119.651)" fill="#49514a" opacity="0.1"/>
        <path id="Path_1042" data-name="Path 1042" d="M690.637,134.189a.33.33,0,0,1-.329.329H677.591a.329.329,0,0,1-.233-.561.332.332,0,0,1,.233-.1h12.716A.329.329,0,0,1,690.637,134.189Z" transform="translate(-677.263 -132.546)" fill="#49514a" opacity="0.1"/>
        <path id="Path_1043" data-name="Path 1043" d="M684.394,148.39a.327.327,0,0,1-.328.328H677.9a.328.328,0,0,1-.328-.328.327.327,0,0,1,.328-.329h6.165A.328.328,0,0,1,684.394,148.39Z" transform="translate(-677.544 -145.432)" fill="#49514a" opacity="0.1"/>
      </g>
    </g>
    <g id="Group_1064" data-name="Group 1064" transform="translate(615.14 33.277)">
      <g id="Group_1062" data-name="Group 1062" transform="translate(0)" opacity="0.1">
        <path id="Path_1044" data-name="Path 1044" d="M632.248,175.231H630.8a1.076,1.076,0,0,0-1.075,1.076v1.45a1.076,1.076,0,0,0,1.075,1.076h1.45a1.078,1.078,0,0,0,1.076-1.076v-1.45A1.078,1.078,0,0,0,632.248,175.231Zm.327,2.525a.337.337,0,0,1-.015.1.327.327,0,0,1-.312.229H630.8a.327.327,0,0,1-.182-.056.328.328,0,0,1-.144-.271v-1.45a.327.327,0,0,1,.327-.327h1.45a.328.328,0,0,1,.156.04.325.325,0,0,1,.17.286Z" transform="translate(-629.723 -175.231)" fill="#49514a"/>
        <path id="Path_1045" data-name="Path 1045" d="M639.909,183.651v1.45a.327.327,0,0,1-.328.327h-1.449a.327.327,0,0,1-.328-.327v-1.45a.327.327,0,0,1,.328-.327h1.449A.327.327,0,0,1,639.909,183.651Z" transform="translate(-637.057 -182.575)" fill="#49514a"/>
      </g>
      <g id="Group_1063" data-name="Group 1063" transform="translate(4.399 0.181)">
        <path id="Path_1046" data-name="Path 1046" d="M690.947,177.519a.328.328,0,0,1-.1.232.332.332,0,0,1-.234.1H677.9a.329.329,0,0,1-.232-.561.331.331,0,0,1,.232-.1h12.717A.328.328,0,0,1,690.947,177.519Z" transform="translate(-677.544 -177.191)" fill="#49514a" opacity="0.1"/>
        <path id="Path_1047" data-name="Path 1047" d="M690.637,191.73a.33.33,0,0,1-.329.328H677.591a.329.329,0,0,1-.233-.561.332.332,0,0,1,.233-.1h12.716A.329.329,0,0,1,690.637,191.73Z" transform="translate(-677.263 -190.086)" fill="#49514a" opacity="0.1"/>
        <path id="Path_1048" data-name="Path 1048" d="M684.394,205.93a.327.327,0,0,1-.328.328H677.9a.328.328,0,0,1-.328-.328.327.327,0,0,1,.328-.328h6.165A.328.328,0,0,1,684.394,205.93Z" transform="translate(-677.544 -202.972)" fill="#49514a" opacity="0.1"/>
      </g>
    </g>
    <g id="Group_1067" data-name="Group 1067" transform="translate(615.14 38.602)">
      <g id="Group_1065" data-name="Group 1065" transform="translate(0)" opacity="0.1">
        <path id="Path_1049" data-name="Path 1049" d="M632.248,232.771H630.8a1.076,1.076,0,0,0-1.075,1.076v1.45a1.076,1.076,0,0,0,1.075,1.076h1.45a1.078,1.078,0,0,0,1.076-1.076v-1.45A1.078,1.078,0,0,0,632.248,232.771Zm.327,2.525a.337.337,0,0,1-.015.1.327.327,0,0,1-.312.229H630.8a.327.327,0,0,1-.182-.056.328.328,0,0,1-.144-.271v-1.45a.327.327,0,0,1,.327-.327h1.45a.327.327,0,0,1,.156.04.325.325,0,0,1,.17.286Z" transform="translate(-629.723 -232.771)" fill="#49514a"/>
        <path id="Path_1050" data-name="Path 1050" d="M639.909,241.191v1.45a.327.327,0,0,1-.328.327h-1.449a.327.327,0,0,1-.328-.327v-1.45a.327.327,0,0,1,.328-.327h1.449A.327.327,0,0,1,639.909,241.191Z" transform="translate(-637.057 -240.115)" fill="#49514a"/>
      </g>
      <g id="Group_1066" data-name="Group 1066" transform="translate(4.399 0.181)">
        <path id="Path_1051" data-name="Path 1051" d="M690.947,235.06a.328.328,0,0,1-.1.232.333.333,0,0,1-.234.1H677.9a.328.328,0,0,1-.328-.329.327.327,0,0,1,.328-.328h12.717A.328.328,0,0,1,690.947,235.06Z" transform="translate(-677.544 -234.731)" fill="#49514a" opacity="0.1"/>
        <path id="Path_1052" data-name="Path 1052" d="M690.637,249.26a.33.33,0,0,1-.329.329H677.591a.33.33,0,0,1-.233-.562.332.332,0,0,1,.233-.1h12.716A.329.329,0,0,1,690.637,249.26Z" transform="translate(-677.263 -247.617)" fill="#49514a" opacity="0.1"/>
        <path id="Path_1053" data-name="Path 1053" d="M684.394,263.469a.327.327,0,0,1-.328.328H677.9a.329.329,0,0,1-.232-.561.331.331,0,0,1,.232-.1h6.165A.328.328,0,0,1,684.394,263.469Z" transform="translate(-677.544 -260.512)" fill="#49514a" opacity="0.1"/>
      </g>
    </g>
  </g>
</svg>
