<svg xmlns="http://www.w3.org/2000/svg" width="27.79" height="22.065" viewBox="0 0 27.79 22.065">
  <g id="Group_1158" data-name="Group 1158" transform="translate(0.504 0.499)">
    <g id="Group_1149" data-name="Group 1149">
      <g id="Group_1148" data-name="Group 1148">
        <path id="Path_1077" data-name="Path 1077" d="M241.56,221.94a3.057,3.057,0,0,1-.778-.1,3.971,3.971,0,0,1-1.95-1.109,4.078,4.078,0,0,1-1.215-3.295,3.61,3.61,0,0,1,.965-2.035,3.3,3.3,0,0,1,2.292-1.078l-.15.148a4.993,4.993,0,0,1,.8-3.242,2.872,2.872,0,0,1,1.554-1,4.175,4.175,0,0,1,1.931-.022l-.213.191a4.408,4.408,0,0,1,1.481-3.83,5.093,5.093,0,0,1,1.967-1.031l.545-.155.561-.09a6.949,6.949,0,0,1,1.138-.11,7.928,7.928,0,0,1,4.59.986A5.106,5.106,0,0,1,256.743,208a6.688,6.688,0,0,1,.711,3.511l-.207-.219a6.506,6.506,0,0,1,4.237,1.188,7.877,7.877,0,0,1,2.493,3.422,4.207,4.207,0,0,1,.39,2.043,4.072,4.072,0,0,1-.663,1.917,4.487,4.487,0,0,1-3.2,1.974h-.019l-13.71.131-3.853.008-1.016-.011a1.689,1.689,0,0,1-.349-.022,1.634,1.634,0,0,1,.35-.033l1.018-.042,3.854-.1,13.7-.273h-.018a4.136,4.136,0,0,0,2.935-1.83,3.636,3.636,0,0,0,.226-3.614,7.5,7.5,0,0,0-2.373-3.252,6.116,6.116,0,0,0-3.984-1.107l-.228.011.021-.23a5.977,5.977,0,0,0-.013-1.021,5.171,5.171,0,0,0-2.185-3.952,7.579,7.579,0,0,0-4.357-.933,6.529,6.529,0,0,0-3.993,1.283,4.072,4.072,0,0,0-1.379,3.5l.024.245-.236-.054a3.1,3.1,0,0,0-3.151.891,4.726,4.726,0,0,0-.759,3.035v.146l-.151,0a3.058,3.058,0,0,0-2.094.971,3.376,3.376,0,0,0-.926,1.885,3.927,3.927,0,0,0,1.1,3.157,4.018,4.018,0,0,0,1.858,1.139C241.29,221.9,241.563,221.914,241.56,221.94Z" transform="translate(-237.597 -205.166)" fill="#6b6c67" stroke="#3b434c" stroke-width="1"/>
      </g>
    </g>
    <g id="Group_1151" data-name="Group 1151" transform="translate(9.598 8.048)">
      <g id="Group_1150" data-name="Group 1150">
        <path id="Path_1078" data-name="Path 1078" d="M257.436,219.908a34.427,34.427,0,0,1-3.594-3.722l.289.006-.072.074a35.417,35.417,0,0,1-3.819,3.642,35.249,35.249,0,0,1,3.536-3.918l.072-.074.147-.152.141.158A34.318,34.318,0,0,1,257.436,219.908Z" transform="translate(-250.237 -215.765)" fill="#6b6c67" stroke="#3b434c" stroke-width="1"/>
      </g>
    </g>
    <g id="Group_1153" data-name="Group 1153" transform="translate(13.153 8.338)">
      <g id="Group_1152" data-name="Group 1152">
        <path id="Path_1079" data-name="Path 1079" d="M255.115,228.874a51.4,51.4,0,0,1-.2-6.364,51.386,51.386,0,0,1,.2-6.364,51.274,51.274,0,0,1,.2,6.364A51.285,51.285,0,0,1,255.115,228.874Z" transform="translate(-254.918 -216.146)" fill="#6b6c67" stroke="#3b434c" stroke-width="1"/>
      </g>
    </g>
  </g>
</svg>
