<svg id="filter" xmlns="http://www.w3.org/2000/svg" width="15.268" height="11.462" viewBox="0 0 15.268 11.462">
  <path id="Path_8" data-name="Path 8" d="M1.477,6.382h4.25a1.905,1.905,0,0,0,3.693,0h6.371a.477.477,0,1,0,0-.954H9.42a1.905,1.905,0,0,0-3.693,0H1.477a.477.477,0,0,0,0,.954Zm6.1-1.437a.96.96,0,1,1-.96.96A.961.961,0,0,1,7.574,4.945Z" transform="translate(-1 -3.991)" fill="#1d1d1b"/>
  <path id="Path_9" data-name="Path 9" d="M15.791,11.428H14.769a1.9,1.9,0,0,0-3.693,0h-9.6a.477.477,0,0,0,0,.954h9.6a1.9,1.9,0,0,0,3.693,0h1.022a.477.477,0,1,0,0-.954Zm-2.868,1.437a.96.96,0,1,1,.96-.96A.961.961,0,0,1,12.923,12.865Z" transform="translate(-1 -6.174)" fill="#1d1d1b"/>
  <path id="Path_10" data-name="Path 10" d="M15.791,17.428H6.546a1.9,1.9,0,0,0-3.693,0H1.477a.477.477,0,1,0,0,.954H2.854a1.9,1.9,0,0,0,3.693,0h9.245a.477.477,0,1,0,0-.954ZM4.7,18.865a.96.96,0,1,1,.959-.96A.961.961,0,0,1,4.7,18.865Z" transform="translate(-1 -8.357)" fill="#1d1d1b"/>
</svg>
