<svg xmlns="http://www.w3.org/2000/svg" width="20.766" height="16.6" viewBox="0 0 20.766 16.6">
  <g id="Group_1164" data-name="Group 1164" transform="translate(-165.87 -112.529)">
    <path id="Path_1089" data-name="Path 1089" d="M182.381,121.441A22.427,22.427,0,0,1,178.165,125a24.722,24.722,0,0,1-10.913,3.987c-.314.038-.627.086-.94.133a.225.225,0,0,1-.252-.093,27.1,27.1,0,0,0,11.013-5.16,25.635,25.635,0,0,0,3.462-3.369c.15-.17.271-.312.352-.406,1.274-1.947,2.2-3.371,2.383-3.664.04-.063.134-.216.08-.339-.031-.07-.115-.118-.268-.159a9.1,9.1,0,0,1-.87-.332l4.6-3.074c-.053,1.868-.1,3.674-.158,5.543-.285-.213-.541-.378-.764-.58s-.337-.211-.5.084a15.562,15.562,0,0,1-1.419,2.066l-.042.047Z" transform="translate(-0.171 0)" fill="#49514a"/>
    <path id="Path_1090" data-name="Path 1090" d="M264.824,126.611a27.3,27.3,0,0,1-2.213,2.249c-.113-.052-.062-.151-.062-.226,0-3.142,0-6.284-.009-9.426,0-.258.064-.328.323-.324,1.059.016,2.119.017,3.179,0,.284,0,.345.081.343.353q-.019,2.5,0,4.99a1.141,1.141,0,0,1-.272.808c-.232.27-.442.56-.662.841Z" transform="translate(-87.138 -5.728)" fill="#49514a"/>
    <path id="Path_1091" data-name="Path 1091" d="M218.08,166.442c0,.652,0,1.3.018,1.957,0,.18-.1.263-.214.361a19.4,19.4,0,0,1-3.553,2.438l-.064-.037q0-2.76,0-5.52-.005-.528-.007-1.061-.005-1.109,0-2.2l.057-.207,3.681,0,.08.057,0,2.512Q218.08,165.59,218.08,166.442Z" transform="translate(-43.62 -44.746)" fill="#49514a"/>
    <path id="Path_1092" data-name="Path 1092" d="M166.926,197.883a8.092,8.092,0,0,1,1.245.008l.6-.015c.953-.04.953-.04.953.9,0,1.551-.005,3.1.005,4.654a.459.459,0,0,1-.277.486,25.934,25.934,0,0,1-3.556,1.512v-6.878q-.012-.317-.025-.634Z" transform="translate(0 -76.922)" fill="#49514a"/>
  </g>
</svg>
