<svg xmlns="http://www.w3.org/2000/svg" width="25.227" height="24.835" viewBox="0 0 25.227 24.835">
  <g id="Group_1075" data-name="Group 1075" transform="translate(0.661 0.514)">
    <path id="Path_489" data-name="Path 489" d="M-174.582,34.591c.269-1.7.477-3.183.75-4.652a1.659,1.659,0,0,0-.256-1.282c-2.825-4.609-2.473-9.637.916-13.436a12.364,12.364,0,0,1,14.046-3.17c5.593,2.442,8.363,8.053,6.716,13.6a12.081,12.081,0,0,1-13.275,8.167,6.044,6.044,0,0,1-2.252-.542,3.507,3.507,0,0,0-3.7.1C-172.519,33.83-173.479,34.144-174.582,34.591Zm1.641-2.4a3.622,3.622,0,0,0,1.7-.517,3,3,0,0,1,3.038-.019,10.055,10.055,0,0,0,6.374.7,9.968,9.968,0,0,0,7.365-14.229c-2.691-5.483-10.265-7.363-15.542-3.857-3.9,2.592-5.675,7.417-3.976,11.495C-173.1,27.856-171.553,29.716-172.94,32.193Z" transform="translate(175.984 -11.066)" fill="#49514a" stroke="#49514a" stroke-width="1"/>
    <path id="Path_490" data-name="Path 490" d="M-138.131,39.226a.913.913,0,0,1-.175.695.781.781,0,0,1-.568.189c-.625.017-.763-.253-.776-.825q-.091-3.989-.256-7.977c-.031-.768.055-1.221,1.038-1.222a1.05,1.05,0,0,1,.784.246,1.025,1.025,0,0,1,.161,1.067C-138.09,35.6-138.184,38.581-138.131,39.226Z" transform="translate(150.906 -25.157)" fill="#49514a"/>
    <path id="Path_491" data-name="Path 491" d="M-137.976,59.907a1.11,1.11,0,0,1-1.268,1.162,1.081,1.081,0,0,1-1.085-1.211,1.1,1.1,0,0,1,1.187-1.266C-138.326,58.6-137.992,59.117-137.976,59.907Z" transform="translate(151.159 -42.183)" fill="#49514a"/>
  </g>
</svg>
