<svg xmlns="http://www.w3.org/2000/svg" xmlns:xlink="http://www.w3.org/1999/xlink" width="130.936" height="173.857" viewBox="0 0 130.936 173.857">
  <defs>
    <clipPath id="clip-path">
      <rect width="130.936" height="173.857" fill="none"/>
    </clipPath>
    <linearGradient id="linear-gradient" x1="0.5" x2="0.5" y2="1" gradientUnits="objectBoundingBox">
      <stop offset="0" stop-color="#fd3e40"/>
      <stop offset="0.273" stop-color="#e4324d"/>
      <stop offset="0.845" stop-color="#a71670"/>
      <stop offset="1" stop-color="#960e7a"/>
    </linearGradient>
  </defs>
  <g id="Component_6_2" data-name="Component 6 – 2" clip-path="url(#clip-path)">
    <path id="Path_1044" data-name="Path 1044" d="M373.11,489.281c-3.576.471-7.71-1.228-11.956-.8-9.377.936-19.078,9.855-16.283,23.156,1.564,7.437-.671,12.334-6.9,15.7-7.153,3.871-15.565,1.187-18.884-6.021a13.871,13.871,0,0,1,7.832-18.862c2.689-1,5.363-1.848,7.655-3.731,8.441-6.933,9.857-17.51,3.183-26.152a57.274,57.274,0,0,1-8.246-14.365c-4.729-12.157-19.841-15.44-29.873-6.581-4.05,3.574-8.371,5.523-13.834,3.91a13.989,13.989,0,0,1-10.165-11.624,14.161,14.161,0,0,1,7.132-13.742,13.215,13.215,0,0,1,15.631,1.708c5.048,4.546,10.565,7.153,17.514,5.694a18.046,18.046,0,0,0,13.767-11.612,53.481,53.481,0,0,1,7.437-13.118c9.089-11.7,4.875-25.549-9.2-30.449-9.838-3.424-13.33-14.448-6.988-22.061a13.865,13.865,0,0,1,24.185,12.009c-1.089,4.99-.815,9.692,1.654,14.273a18.635,18.635,0,0,0,19.039,9.258c14.695-2.2,27.883,1.212,39.258,11.065,1.766,1.529,1.9,2.441.13,4.07-3.418,3.148-6.706,6.455-9.863,9.867-1.712,1.852-2.78,1.988-4.955.333-9.252-7.033-19.386-8.013-29.527-2.35s-14.668,14.816-13.721,26.379c.864,10.54,8.649,19.623,19.127,22.771,8.9,2.677,17.055.943,24.259-4.762,1.982-1.566,3.015-1.5,4.657.276,3.253,3.511,6.653,6.894,10.147,10.163,1.595,1.49,1.539,2.375-.082,3.782A46.339,46.339,0,0,1,373.11,489.281Z" transform="translate(-275.554 -355.249)" fill="url(#linear-gradient)"/>
    <path id="Path_1045" data-name="Path 1045" d="M302.4,379.158a7.991,7.991,0,0,1-8,8.06,8.281,8.281,0,0,1-8.334-8.262,8.4,8.4,0,0,1,8.126-8.12A8.108,8.108,0,0,1,302.4,379.158Z" transform="translate(-264.441 -338.761)" fill="url(#linear-gradient)"/>
    <path id="Path_1046" data-name="Path 1046" d="M302.4,423.446a7.981,7.981,0,0,1-7.982,8.071,8.262,8.262,0,0,1-8.357-8.231,8.413,8.413,0,0,1,8.108-8.141A8.126,8.126,0,0,1,302.4,423.446Z" transform="translate(-264.441 -291.893)" fill="url(#linear-gradient)"/>
  </g>
</svg>
